<?xml version="1.0" encoding="UTF-8"?>
<!-- Generator: https://ezgif.com/jpg-to-svg -->
<svg version="1.1" xmlns="http://www.w3.org/2000/svg" width="1117" height="1586">
<path d="M0 0 C2.81 1.29 4.93 2.66 7.17 4.79 C7.75 5.34 8.33 5.88 8.92 6.44 C9.53 7.02 10.13 7.59 10.75 8.19 C12.01 9.37 13.27 10.56 14.53 11.75 C15.13 12.31 15.74 12.88 16.36 13.46 C18.88 15.82 21.48 18.08 24.09 20.34 C28.11 23.83 32.04 27.43 36 31 C37.67 32.5 39.33 34 41 35.5 C57.67 50.5 74.33 65.5 91 80.5 C91.82 81.24 92.64 81.98 93.49 82.74 C95.19 84.27 96.88 85.79 98.57 87.32 C102.32 90.7 106.07 94.07 109.88 97.38 C113.84 100.83 117.71 104.39 121.58 107.95 C124.35 110.51 127.15 113.03 130 115.5 C133.93 118.91 137.75 122.43 141.58 125.95 C144.35 128.51 147.15 131.03 150 133.5 C153.39 136.44 156.7 139.46 160 142.5 C163.96 146.14 167.95 149.74 172.02 153.27 C176.05 156.8 180.02 160.41 184 164 C185.67 165.5 187.33 167 189 168.5 C205.67 183.5 222.33 198.5 239 213.5 C239.82 214.24 240.64 214.98 241.49 215.74 C243.19 217.27 244.88 218.79 246.57 220.32 C250.32 223.7 254.07 227.07 257.88 230.38 C261.84 233.83 265.71 237.39 269.58 240.95 C272.35 243.51 275.15 246.03 278 248.5 C281.93 251.91 285.75 255.43 289.58 258.95 C292.35 261.51 295.15 264.03 298 266.5 C301.39 269.44 304.7 272.46 308 275.5 C311.96 279.14 315.95 282.74 320.02 286.27 C324.05 289.8 328.02 293.41 332 297 C333.67 298.5 335.33 300 337 301.5 C353.67 316.5 370.33 331.5 387 346.5 C387.82 347.24 388.64 347.98 389.49 348.74 C391.19 350.27 392.88 351.79 394.57 353.32 C398.32 356.7 402.07 360.07 405.88 363.38 C409.92 366.89 413.86 370.53 417.79 374.18 C419.83 376.07 421.77 377.85 424.12 379.35 C426.56 381.5 426.6 382.66 426.84 385.87 C426.92 386.88 427 387.89 427.09 388.93 C427.17 390.04 427.24 391.15 427.32 392.29 C427.41 393.47 427.5 394.65 427.6 395.87 C427.85 399.14 428.09 402.42 428.32 405.7 C428.58 409.23 428.85 412.76 429.13 416.29 C429.6 422.41 430.05 428.53 430.5 434.65 C431.14 443.5 431.81 452.35 432.48 461.2 C433.57 475.56 434.64 489.92 435.7 504.27 C436.73 518.22 437.77 532.17 438.82 546.12 C438.88 546.98 438.95 547.84 439.02 548.72 C439.34 553.03 439.67 557.35 439.99 561.66 C442.68 597.44 445.35 633.22 448 669 C448.04 668.39 448.09 667.79 448.14 667.17 C450.78 631.3 453.45 595.43 456.15 559.57 C456.48 555.26 456.8 550.96 457.12 546.66 C457.19 545.8 457.25 544.94 457.32 544.06 C458.36 530.18 459.39 516.29 460.41 502.41 C461.46 488.16 462.53 473.92 463.61 459.68 C464.28 450.89 464.93 442.1 465.57 433.31 C466.01 427.29 466.46 421.26 466.93 415.24 C467.2 411.76 467.46 408.28 467.7 404.8 C467.97 401.03 468.26 397.26 468.56 393.5 C468.63 392.39 468.71 391.29 468.78 390.16 C469.42 382.73 469.42 382.73 472.47 378.9 C473.31 378.27 474.14 377.64 475 377 C475.63 376.39 476.26 375.79 476.91 375.17 C478.88 373.32 480.84 371.47 482.81 369.62 C483.49 368.99 484.16 368.36 484.85 367.7 C488.88 363.93 492.97 360.25 497.13 356.63 C499.8 354.3 502.4 351.9 505 349.5 C508.93 345.88 512.9 342.31 516.94 338.81 C519.49 336.57 521.99 334.29 524.5 332 C527.62 329.15 530.75 326.33 533.94 323.56 C537.89 320.13 541.73 316.59 545.58 313.05 C548.96 309.93 552.4 306.89 555.88 303.88 C558.62 301.45 561.31 298.98 564 296.5 C567.91 292.9 571.86 289.36 575.88 285.88 C578.62 283.45 581.31 280.98 584 278.5 C587.96 274.86 591.95 271.26 596.02 267.73 C600.05 264.2 604.02 260.59 608 257 C609.67 255.5 611.33 254 613 252.5 C613.83 251.76 614.65 251.01 615.5 250.25 C663 207.5 663 207.5 665.49 205.26 C667.19 203.73 668.88 202.21 670.57 200.68 C674.32 197.3 678.07 193.93 681.88 190.62 C685.84 187.17 689.71 183.61 693.58 180.05 C696.96 176.93 700.4 173.89 703.88 170.88 C706.62 168.45 709.31 165.98 712 163.5 C715.91 159.9 719.86 156.36 723.88 152.88 C726.62 150.45 729.31 147.98 732 145.5 C735.96 141.86 739.95 138.26 744.02 134.73 C748.05 131.2 752.02 127.59 756 124 C757.67 122.5 759.33 121 761 119.5 C761.83 118.76 762.65 118.01 763.5 117.25 C811 74.5 811 74.5 813.49 72.26 C815.19 70.73 816.88 69.21 818.57 67.68 C822.32 64.3 826.07 60.93 829.88 57.62 C833.84 54.17 837.71 50.61 841.58 47.05 C844.96 43.93 848.4 40.89 851.88 37.88 C854.62 35.45 857.31 32.98 860 30.5 C863.91 26.9 867.86 23.36 871.88 19.88 C874.62 17.45 877.31 14.98 880 12.5 C881.03 11.56 882.06 10.61 883.09 9.67 C884.88 8.03 886.67 6.37 888.44 4.7 C889.49 3.74 889.49 3.74 890.56 2.75 C891.16 2.19 891.76 1.63 892.38 1.05 C892.91 0.7 893.45 0.36 894 0 C897.54 1.18 897.86 1.91 899.76 5 C900.29 5.85 900.83 6.71 901.38 7.59 C901.95 8.53 902.53 9.47 903.12 10.44 C904.38 12.45 905.64 14.46 906.9 16.48 C907.57 17.54 908.23 18.6 908.92 19.7 C912.44 25.28 916.07 30.79 919.69 36.31 C920.4 37.41 921.12 38.5 921.85 39.63 C925.05 44.53 928.27 49.41 931.56 54.25 C932.08 55.03 932.61 55.81 933.15 56.62 C934.1 58.03 935.06 59.44 936.04 60.84 C937.76 63.42 938.97 65.37 939.11 68.51 C937.48 72.16 935.12 74.96 932.56 78 C931.46 79.34 930.36 80.68 929.26 82.02 C928.71 82.69 928.16 83.36 927.59 84.05 C925.29 86.86 923.08 89.74 920.88 92.62 C920.26 93.42 920.26 93.42 919.64 94.24 C918.43 95.82 917.21 97.41 916 99 C909.76 107.14 903.48 115.25 897.17 123.35 C893.77 127.72 890.38 132.1 887 136.5 C882.42 142.47 877.8 148.41 873.17 154.35 C869.77 158.72 866.38 163.1 863 167.5 C858.42 173.47 853.8 179.41 849.17 185.35 C845.77 189.72 842.38 194.1 839 198.5 C834.42 204.47 829.8 210.41 825.17 216.35 C821.77 220.72 818.38 225.1 815 229.5 C810.42 235.47 805.8 241.41 801.17 247.35 C797.77 251.72 794.38 256.1 791 260.5 C786.42 266.47 781.8 272.41 777.17 278.35 C773.77 282.72 770.38 287.1 767 291.5 C762.42 297.47 757.8 303.41 753.17 309.35 C749.77 313.72 746.38 318.1 743 322.5 C738.42 328.47 733.8 334.41 729.17 340.35 C725.77 344.72 722.38 349.1 719 353.5 C714.42 359.47 709.8 365.41 705.17 371.35 C701.77 375.72 698.38 380.1 695 384.5 C690.42 390.47 685.8 396.41 681.17 402.35 C677.77 406.72 674.38 411.1 671 415.5 C666.42 421.47 661.8 427.41 657.17 433.35 C653.77 437.72 650.38 442.1 647 446.5 C642.42 452.47 637.8 458.41 633.17 464.35 C629.77 468.72 626.38 473.1 623 477.5 C618.42 483.47 613.8 489.41 609.17 495.35 C605.77 499.72 602.38 504.1 599 508.5 C594.42 514.47 589.8 520.41 585.17 526.35 C581.77 530.72 578.38 535.1 575 539.5 C570.42 545.47 565.8 551.41 561.17 557.35 C557.77 561.72 554.38 566.1 551 570.5 C546.42 576.47 541.8 582.41 537.17 588.35 C533.77 592.72 530.38 597.1 527 601.5 C522.42 607.47 517.8 613.41 513.17 619.35 C509.77 623.72 506.38 628.1 503 632.5 C498.42 638.47 493.8 644.41 489.17 650.35 C485.77 654.72 482.38 659.1 479 663.5 C474.43 669.46 469.82 675.39 465.19 681.31 C462.42 684.85 459.68 688.41 457.02 692.04 C456.35 692.95 456.35 692.95 455.66 693.89 C454.46 695.51 453.27 697.15 452.09 698.79 C451.05 699.88 451.05 699.88 450 701 C448.68 701 447.36 701 446 701 C444.1 698.98 442.51 697.04 440.88 694.81 C440.39 694.18 439.91 693.54 439.41 692.88 C438.41 691.56 437.42 690.24 436.43 688.91 C434.38 686.17 432.28 683.46 430.19 680.75 C429.37 679.68 428.55 678.61 427.73 677.55 C424.51 673.35 421.25 669.18 418 665 C413.19 658.82 408.4 652.62 403.62 646.41 C400.43 642.26 397.22 638.13 394 634 C389.19 627.82 384.4 621.62 379.62 615.41 C376.43 611.26 373.22 607.13 370 603 C365.19 596.82 360.4 590.62 355.62 584.41 C352.43 580.26 349.22 576.13 346 572 C341.19 565.82 336.4 559.62 331.62 553.41 C328.43 549.26 325.22 545.13 322 541 C317.19 534.82 312.4 528.62 307.62 522.41 C304.43 518.26 301.22 514.13 298 510 C293.19 503.82 288.4 497.62 283.62 491.41 C280.43 487.26 277.22 483.13 274 479 C269.19 472.82 264.4 466.62 259.62 460.41 C256.43 456.26 253.22 452.13 250 448 C245.19 441.82 240.4 435.62 235.62 429.41 C232.43 425.26 229.22 421.13 226 417 C221.19 410.82 216.4 404.62 211.62 398.41 C208.43 394.26 205.22 390.13 202 386 C197.19 379.82 192.4 373.62 187.62 367.41 C184.43 363.26 181.22 359.13 178 355 C173.19 348.82 168.4 342.62 163.62 336.41 C160.43 332.26 157.22 328.13 154 324 C149.19 317.82 144.4 311.62 139.62 305.41 C136.43 301.26 133.22 297.13 130 293 C125.19 286.82 120.4 280.62 115.62 274.41 C112.43 270.26 109.22 266.13 106 262 C101.19 255.82 96.4 249.62 91.62 243.41 C88.43 239.26 85.22 235.13 82 231 C77.19 224.82 72.4 218.62 67.62 212.41 C64.43 208.26 61.22 204.13 58 200 C53.19 193.82 48.4 187.62 43.62 181.41 C40.43 177.26 37.22 173.13 34 169 C29.19 162.82 24.4 156.62 19.62 150.41 C16.43 146.26 13.22 142.13 10 138 C5.19 131.82 0.4 125.62 -4.38 119.41 C-7.57 115.26 -10.78 111.13 -14 107 C-24.5 93.5 -24.5 93.5 -29.67 86.73 C-31.2 84.73 -32.76 82.76 -34.32 80.79 C-35.44 79.34 -36.56 77.89 -37.69 76.44 C-38.23 75.76 -38.77 75.08 -39.33 74.38 C-39.82 73.74 -40.32 73.09 -40.82 72.43 C-41.49 71.58 -41.49 71.58 -42.17 70.72 C-43 69 -43 69 -42.75 66.98 C-41.55 63.8 -39.7 61.03 -37.88 58.19 C-37.22 57.16 -37.22 57.16 -36.56 56.11 C-31.35 47.91 -26.02 39.78 -20.7 31.65 C-17.42 26.65 -14.18 21.64 -10.94 16.62 C-7.34 11.05 -3.71 5.5 0 0 Z " fill="#000000" transform="translate(116,781)"/>
<path d="M0 0 C0.66 0 1.32 0 2 0 C3.09 1.38 3.09 1.38 4.29 3.35 C4.98 4.46 4.98 4.46 5.68 5.59 C6.18 6.4 6.67 7.22 7.19 8.06 C8.27 9.81 9.36 11.56 10.45 13.31 C11.31 14.7 11.31 14.7 12.19 16.12 C15.25 21 18.41 25.81 21.56 30.62 C22.85 32.59 24.13 34.55 25.41 36.52 C26.03 37.45 26.64 38.39 27.27 39.35 C34.16 49.9 40.97 60.51 47.75 71.12 C54.88 82.28 62.09 93.37 69.33 104.45 C76.2 114.97 82.99 125.54 89.75 136.12 C95.57 145.23 101.44 154.29 107.35 163.33 C111.95 170.36 116.48 177.42 121 184.5 C128.04 195.53 135.18 206.5 142.33 217.45 C149.2 227.97 155.99 238.54 162.75 249.12 C169.88 260.28 177.09 271.37 184.33 282.45 C191.2 292.97 197.99 303.54 204.75 314.12 C211.88 325.28 219.09 336.37 226.33 347.45 C233.2 357.97 239.99 368.54 246.75 379.12 C251.96 387.28 257.2 395.4 262.5 403.5 C268.53 412.71 274.5 421.96 280.4 431.25 C283.24 435.71 286.08 440.15 289.04 444.51 C289.48 445.16 289.91 445.8 290.36 446.47 C291.46 448.1 292.57 449.71 293.69 451.33 C295 454 295 454 295.02 456.56 C293.65 459.83 291.8 461.43 289.12 463.75 C288.63 464.18 288.14 464.61 287.63 465.06 C283.45 468.7 279.13 472.17 274.82 475.65 C271.26 478.62 267.87 481.76 264.48 484.91 C260.39 488.69 256.12 492.2 251.78 495.69 C248.23 498.64 244.86 501.77 241.48 504.92 C238.27 507.89 234.97 510.7 231.56 513.44 C227.38 516.8 223.42 520.33 219.5 524 C214.74 528.46 209.84 532.64 204.75 536.72 C201.74 539.22 198.86 541.84 196 544.5 C191.41 548.77 186.67 552.76 181.78 556.69 C178.23 559.64 174.86 562.77 171.48 565.92 C168.27 568.89 164.97 571.7 161.56 574.44 C157.38 577.8 153.42 581.33 149.5 585 C144.74 589.46 139.84 593.64 134.75 597.72 C131.74 600.22 128.86 602.84 126 605.5 C121.41 609.77 116.67 613.76 111.78 617.69 C108.76 620.2 105.88 622.82 103 625.5 C98.41 629.77 93.67 633.76 88.78 637.69 C85.23 640.64 81.86 643.77 78.48 646.92 C75.27 649.89 71.97 652.7 68.56 655.44 C64.38 658.8 60.42 662.33 56.5 666 C51.74 670.46 46.84 674.64 41.75 678.72 C38.74 681.22 35.86 683.84 33 686.5 C28.42 690.76 23.69 694.74 18.81 698.66 C15.08 701.77 11.54 705.08 8.06 708.46 C3.18 713.08 3.18 713.08 0 713 C-2.37 711.52 -2.37 711.52 -5 709.25 C-5.97 708.42 -6.94 707.59 -7.94 706.73 C-11.51 703.57 -15.02 700.34 -18.52 697.09 C-21.73 694.11 -25.03 691.3 -28.44 688.56 C-33.22 684.72 -37.69 680.63 -42.16 676.44 C-46.37 672.52 -50.76 668.88 -55.25 665.28 C-58.26 662.78 -61.14 660.16 -64 657.5 C-67.73 654.03 -71.52 650.7 -75.5 647.5 C-80.02 643.86 -84.28 640.03 -88.52 636.08 C-91.73 633.11 -95.03 630.3 -98.44 627.56 C-103.22 623.72 -107.69 619.63 -112.16 615.44 C-116.37 611.52 -120.76 607.88 -125.25 604.28 C-128.26 601.78 -131.14 599.16 -134 596.5 C-137.73 593.03 -141.52 589.7 -145.5 586.5 C-150.02 582.86 -154.28 579.03 -158.52 575.08 C-161.73 572.11 -165.03 569.3 -168.44 566.56 C-173.22 562.72 -177.69 558.63 -182.16 554.44 C-186.37 550.52 -190.76 546.88 -195.25 543.28 C-198.26 540.78 -201.14 538.16 -204 535.5 C-207.73 532.03 -211.52 528.7 -215.5 525.5 C-220.02 521.86 -224.28 518.03 -228.52 514.08 C-231.73 511.11 -235.03 508.3 -238.44 505.56 C-243.22 501.72 -247.69 497.63 -252.16 493.44 C-256.37 489.52 -260.76 485.88 -265.25 482.28 C-268.79 479.35 -272.14 476.23 -275.5 473.11 C-279.79 469.13 -284.26 465.44 -288.82 461.78 C-291 460 -291 460 -293 458 C-292.72 453.25 -291.19 450.23 -288.57 446.32 C-287.86 445.26 -287.16 444.19 -286.43 443.09 C-285.66 441.96 -284.89 440.82 -284.12 439.69 C-283.34 438.51 -282.55 437.33 -281.77 436.15 C-280.22 433.81 -278.66 431.48 -277.1 429.15 C-274.51 425.27 -271.96 421.36 -269.44 417.44 C-268.81 416.46 -268.81 416.46 -268.17 415.47 C-263.48 408.21 -258.84 400.92 -254.18 393.64 C-249.05 385.62 -243.86 377.64 -238.65 369.67 C-234.05 362.64 -229.52 355.58 -225 348.5 C-217.96 337.47 -210.82 326.5 -203.67 315.55 C-196.8 305.03 -190.01 294.46 -183.25 283.88 C-176.12 272.72 -168.91 261.63 -161.67 250.55 C-154.8 240.03 -148.01 229.46 -141.25 218.88 C-134.12 207.72 -126.91 196.63 -119.67 185.55 C-112.8 175.03 -106.01 164.46 -99.25 153.88 C-93.43 144.77 -87.56 135.71 -81.65 126.67 C-77.05 119.64 -72.52 112.58 -68 105.5 C-60.96 94.47 -53.82 83.5 -46.67 72.55 C-39.11 60.98 -31.65 49.33 -24.21 37.69 C-18.79 29.2 -13.3 20.77 -7.78 12.35 C-7.2 11.45 -6.61 10.56 -6.01 9.64 C-5.25 8.47 -5.25 8.47 -4.46 7.28 C-3.4 5.62 -2.4 3.93 -1.44 2.21 C-0.73 1.12 -0.73 1.12 0 0 Z M1 203 C-4.52 209.78 -8.79 217.56 -13.25 225.06 C-16.73 230.91 -20.29 236.69 -23.94 242.44 C-28.11 249 -32.23 255.58 -36.31 262.19 C-40.95 269.7 -45.62 277.2 -50.31 284.69 C-56.26 294.19 -62.15 303.73 -68.02 313.29 C-73.09 321.54 -78.21 329.75 -83.36 337.96 C-87.94 345.29 -92.48 352.64 -97 360 C-102.74 369.34 -108.52 378.65 -114.34 387.94 C-119.06 395.48 -123.72 403.05 -128.38 410.62 C-133.81 419.49 -139.31 428.3 -145 437 C-137.65 444.43 -129.84 451.18 -121.72 457.75 C-118.22 460.64 -114.88 463.7 -111.53 466.75 C-108.93 469.06 -106.27 471.26 -103.56 473.44 C-98.79 477.3 -94.27 481.37 -89.75 485.53 C-86.17 488.75 -82.43 491.76 -78.68 494.79 C-75.19 497.66 -71.87 500.71 -68.53 503.75 C-65.93 506.06 -63.27 508.26 -60.56 510.44 C-55.79 514.3 -51.27 518.37 -46.75 522.53 C-43.17 525.75 -39.43 528.76 -35.68 531.79 C-32.19 534.66 -28.87 537.71 -25.53 540.75 C-22.05 543.84 -18.44 546.74 -14.81 549.64 C-12.8 551.33 -10.91 553.01 -9.04 554.82 C-8.55 555.29 -8.06 555.76 -7.56 556.24 C-6.2 557.56 -4.85 558.89 -3.51 560.23 C-1.17 562.23 -1.17 562.23 1.5 562.05 C4.7 560.71 6.63 558.91 9.12 556.5 C10.09 555.58 11.06 554.67 12.04 553.75 C12.53 553.29 13.02 552.83 13.52 552.35 C15.79 550.28 18.17 548.36 20.56 546.44 C24.14 543.55 27.6 540.6 31 537.5 C34.4 534.4 37.86 531.45 41.44 528.56 C45.24 525.49 48.9 522.31 52.5 519 C56.97 514.89 61.59 511.03 66.32 507.21 C68.95 505.04 71.48 502.8 74 500.5 C77.4 497.4 80.86 494.45 84.44 491.56 C88.24 488.49 91.9 485.31 95.5 482 C99.97 477.89 104.59 474.03 109.32 470.21 C111.95 468.04 114.48 465.8 117 463.5 C120.4 460.4 123.86 457.45 127.44 454.56 C134.25 449.05 140.82 443.22 147 437 C146.61 436.38 146.23 435.77 145.83 435.13 C138.5 423.41 131.18 411.69 123.91 399.93 C119.86 393.38 115.78 386.84 111.69 380.31 C105.74 370.81 99.85 361.27 93.98 351.71 C89.52 344.45 85.02 337.22 80.5 330 C74.61 320.6 68.78 311.16 62.98 301.71 C58.52 294.45 54.02 287.22 49.5 280 C43.62 270.61 37.79 261.18 32 251.74 C26.77 243.23 21.49 234.77 16.18 226.32 C12.21 219.97 8.3 213.58 4.52 207.11 C3.71 205.72 2.86 204.36 2 203 C1.67 203 1.34 203 1 203 Z " fill="#000000" transform="translate(563,90)"/>
<path d="M0 0 C3.86 1.6 6.58 4.22 9.56 7.06 C13.39 10.65 17.27 14.1 21.38 17.38 C26.41 21.43 31.1 25.77 35.81 30.2 C40.12 34.24 44.6 37.99 49.21 41.68 C53.64 45.36 57.81 49.3 62.02 53.23 C66.63 57.53 71.41 61.64 76.21 65.74 C82.76 71.32 89.22 76.97 95.57 82.78 C100.04 86.86 104.61 90.82 109.22 94.75 C115.76 100.33 122.22 105.97 128.57 111.78 C133.04 115.86 137.61 119.82 142.22 123.75 C143.42 124.77 144.61 125.79 145.81 126.81 C146.42 127.33 147.02 127.85 147.65 128.38 C151.39 131.58 155.06 134.85 158.69 138.19 C162.14 141.36 165.66 144.38 169.31 147.31 C174.37 151.39 179.08 155.75 183.81 160.2 C187.27 163.45 190.79 166.53 194.5 169.5 C198.86 172.99 202.94 176.68 207 180.5 C211.91 185.12 216.94 189.47 222.21 193.68 C226.64 197.36 230.81 201.3 235.02 205.23 C239.63 209.53 244.41 213.64 249.21 217.74 C255.76 223.32 262.22 228.97 268.57 234.78 C273.04 238.86 277.61 242.82 282.22 246.75 C288.76 252.33 295.22 257.97 301.57 263.78 C306.04 267.86 310.61 271.82 315.22 275.75 C316.42 276.77 317.61 277.79 318.81 278.81 C319.71 279.58 319.71 279.58 320.63 280.36 C325.47 284.5 330.16 288.78 334.79 293.14 C336.95 295.19 336.95 295.19 340 296 C340.96 295.09 341.91 294.19 342.89 293.25 C349.5 287.02 356.14 280.96 363.25 275.28 C367.66 271.62 371.82 267.68 376.02 263.77 C380.63 259.47 385.41 255.36 390.21 251.26 C396.76 245.68 403.22 240.03 409.57 234.22 C414.04 230.14 418.61 226.18 423.22 222.25 C424.42 221.23 425.61 220.21 426.81 219.19 C427.42 218.67 428.02 218.15 428.65 217.62 C432.39 214.42 436.06 211.15 439.69 207.81 C443.14 204.64 446.66 201.62 450.31 198.69 C455.37 194.61 460.08 190.25 464.81 185.8 C469.1 181.78 473.56 178.05 478.16 174.38 C481.56 171.54 484.78 168.54 488 165.5 C492.91 160.88 497.94 156.53 503.21 152.32 C507.64 148.64 511.81 144.7 516.02 140.77 C520.63 136.47 525.41 132.36 530.21 128.26 C536.76 122.68 543.22 117.03 549.57 111.22 C554.04 107.14 558.61 103.18 563.22 99.25 C569.76 93.67 576.22 88.03 582.57 82.22 C587.04 78.14 591.61 74.18 596.22 70.25 C597.42 69.23 598.61 68.21 599.81 67.19 C600.42 66.67 601.02 66.15 601.65 65.62 C605.39 62.42 609.06 59.15 612.69 55.81 C616.14 52.64 619.66 49.62 623.31 46.69 C628.37 42.61 633.08 38.25 637.81 33.8 C641.27 30.55 644.79 27.47 648.5 24.5 C652.91 20.97 657.07 17.23 661.19 13.38 C661.78 12.82 662.38 12.26 662.99 11.68 C664.14 10.61 665.29 9.54 666.43 8.46 C668.52 6.52 670.62 4.59 672.75 2.69 C673.34 2.16 673.94 1.62 674.55 1.07 C676 0 676 0 678 0 C679.09 1.38 679.09 1.38 680.29 3.35 C680.98 4.46 680.98 4.46 681.68 5.59 C682.18 6.4 682.67 7.22 683.19 8.06 C684.27 9.81 685.36 11.56 686.45 13.31 C687.31 14.7 687.31 14.7 688.19 16.12 C691.25 21 694.41 25.81 697.56 30.62 C698.84 32.58 700.12 34.54 701.4 36.5 C702.01 37.43 702.63 38.37 703.26 39.33 C705.72 43.11 708.18 46.9 710.62 50.69 C714.57 56.8 718.53 62.9 722.5 69 C728.35 77.99 734.18 86.99 740 96 C742.02 99.13 744.04 102.25 746.06 105.38 C746.53 106.1 746.99 106.82 747.47 107.56 C748.12 108.56 748.12 108.56 748.79 109.59 C749.17 110.17 749.55 110.76 749.94 111.37 C750.95 112.92 751.97 114.46 753 116 C753 116.99 753 117.98 753 119 C751.09 120.84 751.09 120.84 748.38 122.94 C747.37 123.73 746.37 124.52 745.34 125.34 C744.79 125.77 744.25 126.2 743.69 126.64 C740.73 129.02 737.87 131.51 735 134 C729.99 138.32 724.91 142.55 719.77 146.73 C714.46 151.09 709.23 155.55 704 160 C696.98 165.96 689.94 171.88 682.8 177.7 C677.48 182.07 672.25 186.54 667 191 C660.89 196.19 654.78 201.38 648.56 206.44 C644.32 209.89 640.15 213.43 636 217 C630.99 221.32 625.91 225.55 620.78 229.72 C617.66 232.28 614.58 234.89 611.5 237.5 C607.55 240.85 603.58 244.17 599.56 247.44 C594.7 251.4 589.94 255.47 585.19 259.56 C580.8 263.33 576.34 267.01 571.84 270.66 C568.52 273.39 565.26 276.19 562 279 C556.98 283.32 551.91 287.55 546.77 291.73 C541.46 296.09 536.23 300.55 531 305 C523.98 310.96 516.94 316.88 509.8 322.7 C504.48 327.07 499.25 331.54 494 336 C486.98 341.96 479.94 347.88 472.8 353.7 C467.48 358.07 462.25 362.54 457 367 C450.89 372.19 444.78 377.38 438.56 382.44 C434.32 385.89 430.15 389.43 426 393 C420.99 397.32 415.91 401.55 410.78 405.72 C407.66 408.28 404.58 410.89 401.5 413.5 C397.55 416.85 393.58 420.17 389.56 423.44 C384.7 427.4 379.94 431.47 375.19 435.56 C370.81 439.33 366.35 442.99 361.87 446.64 C357.81 449.98 353.83 453.4 349.86 456.84 C346.62 459.63 343.35 462.35 340 465 C335.86 463.3 332.76 460.36 329.44 457.44 C328.18 456.34 326.92 455.25 325.66 454.16 C324.72 453.35 324.72 453.35 323.77 452.52 C321.36 450.45 318.91 448.44 316.44 446.44 C309.65 440.92 303 435.25 296.33 429.58 C290.76 424.85 285.17 420.12 279.5 415.5 C272.7 409.96 266.02 404.27 259.33 398.58 C253.78 393.86 248.22 389.16 242.56 384.56 C237.7 380.61 232.94 376.54 228.19 372.44 C223.78 368.65 219.3 364.95 214.78 361.28 C211.09 358.26 207.46 355.17 203.83 352.08 C200.44 349.2 197.02 346.37 193.56 343.56 C188.7 339.6 183.94 335.53 179.19 331.44 C175.67 328.41 172.11 325.43 168.5 322.5 C164.27 319.07 160.12 315.55 156 312 C150.98 307.68 145.91 303.45 140.77 299.27 C134.89 294.45 129.12 289.51 123.33 284.58 C117.76 279.85 112.17 275.12 106.5 270.5 C99.7 264.96 93.02 259.27 86.33 253.58 C80.78 248.86 75.22 244.16 69.56 239.56 C64.7 235.61 59.94 231.54 55.19 227.44 C50.78 223.65 46.3 219.95 41.78 216.28 C38.09 213.26 34.46 210.17 30.83 207.08 C27.44 204.2 24.02 201.37 20.56 198.56 C15.7 194.6 10.94 190.53 6.19 186.44 C2.67 183.41 -0.89 180.43 -4.5 177.5 C-8.73 174.07 -12.88 170.55 -17 167 C-22.02 162.68 -27.09 158.45 -32.23 154.27 C-38.11 149.45 -43.88 144.51 -49.67 139.58 C-61.95 128.79 -61.95 128.79 -75 119 C-74.39 116.01 -73.45 113.83 -71.8 111.26 C-71.11 110.17 -71.11 110.17 -70.41 109.06 C-69.9 108.28 -69.4 107.49 -68.88 106.69 C-68.35 105.86 -67.82 105.03 -67.27 104.18 C-61.77 95.59 -56.19 87.05 -50.61 78.52 C-47.47 73.73 -44.36 68.93 -41.25 64.12 C-40.81 63.45 -40.37 62.77 -39.92 62.07 C-39.05 60.72 -38.18 59.38 -37.31 58.03 C-35.04 54.52 -32.77 51.01 -30.5 47.5 C-29.58 46.08 -28.67 44.67 -27.75 43.25 C-22.25 34.75 -22.25 34.75 -20.87 32.62 C-19.96 31.22 -19.05 29.81 -18.14 28.4 C-15.75 24.71 -13.36 21.02 -10.97 17.33 C-10.47 16.56 -9.97 15.8 -9.46 15.01 C-8.51 13.54 -7.57 12.08 -6.62 10.62 C-4.34 7.12 -2.12 3.6 0 0 Z " fill="#000000" transform="translate(225,612)"/>
</svg>
